<?xml version="1.0" standalone="no"?>
<!DOCTYPE svg PUBLIC "-//W3C//DTD SVG 20010904//EN"
 "http://www.w3.org/TR/2001/REC-SVG-20010904/DTD/svg10.dtd">
<svg version="1.0" xmlns="http://www.w3.org/2000/svg"
 width="4267.000000pt" height="4267.000000pt" viewBox="0 0 4267.000000 4267.000000"
 preserveAspectRatio="xMidYMid meet">

<g transform="translate(0.000000,4267.000000) scale(0.100000,-0.100000)"
fill="#000000" stroke="none">
<path d="M17489 32591 c-159 -10 -184 -15 -294 -53 -104 -36 -123 -51 -206
-167 -147 -206 -190 -394 -139 -608 39 -165 113 -287 251 -417 148 -140 63
-121 689 -147 697 -28 1295 -30 1465 -6 244 34 390 97 525 224 180 169 268
375 258 600 -7 150 -54 260 -164 382 -109 120 -242 158 -634 181 -222 13
-1584 21 -1751 11z"/>
<path d="M24365 32594 c-722 -20 -900 -31 -991 -65 -102 -38 -250 -173 -323
-293 -65 -109 -85 -178 -85 -301 0 -98 4 -119 31 -192 80 -218 282 -447 460
-524 37 -16 83 -22 222 -29 488 -26 1883 10 2210 56 62 9 167 83 285 201 167
167 212 245 237 412 33 233 -30 463 -162 585 -90 83 -189 114 -444 136 -123
11 -1177 21 -1440 14z"/>
<path d="M27255 29873 c-185 -7 -436 -26 -510 -38 -90 -14 -140 -36 -232 -101
-174 -124 -254 -288 -256 -529 -1 -230 69 -359 326 -597 l95 -87 1160 -13
1161 -12 63 56 c135 119 329 322 377 393 113 169 128 316 50 481 -76 161 -275
367 -389 402 -52 16 -200 31 -420 42 -170 9 -1231 11 -1425 3z"/>
<path d="M14120 29861 c-129 -18 -234 -75 -331 -178 -139 -146 -211 -324 -210
-521 0 -175 49 -295 170 -424 121 -129 251 -217 371 -253 83 -24 456 -30 1080
-16 984 21 1293 36 1429 67 126 28 287 149 371 277 116 177 130 444 35 645
-49 103 -161 214 -314 310 l-114 72 -881 0 c-774 1 -1220 8 -1476 24 -41 2
-100 1 -130 -3z"/>
<path d="M14835 26970 c-1015 -7 -1031 -8 -1095 -28 -242 -80 -427 -320 -446
-580 -8 -97 12 -176 72 -292 106 -205 303 -372 489 -415 120 -28 465 -35 1340
-29 l840 7 1060 -1070 c1221 -1231 1876 -1897 2935 -2982 l755 -773 6 -2532
c5 -1932 10 -2578 20 -2731 21 -329 22 -329 -98 -490 -208 -280 -253 -484
-167 -745 95 -284 360 -518 676 -596 98 -24 298 -29 387 -10 134 28 363 159
489 279 148 141 263 386 264 562 1 143 -34 238 -168 461 l-86 143 16 858 c25
1284 35 2057 41 3203 8 1395 16 1570 78 1669 44 71 149 184 577 616 435 441
630 642 1070 1110 264 281 327 347 945 985 616 637 723 750 1063 1123 82 90
167 173 200 196 32 22 82 67 111 100 74 85 187 175 491 387 46 32 115 90 153
127 56 55 77 70 115 78 28 6 406 14 952 19 498 5 960 14 1028 20 353 32 598
206 694 495 19 58 23 90 22 190 0 103 -4 132 -27 201 -29 86 -81 175 -144 245
-54 60 -168 137 -227 154 -86 24 -292 35 -878 45 -629 11 -11903 10 -13553 0z
m10305 -1322 c0 -27 -61 -116 -130 -193 -206 -227 -484 -515 -1375 -1425 -380
-388 -861 -880 -1070 -1095 -816 -839 -969 -988 -1044 -1016 -19 -8 -32 -4
-62 17 -48 33 -2328 2320 -3001 3009 -274 281 -525 546 -559 590 l-61 80 82 6
c45 4 1340 10 2878 14 2375 7 4183 16 4310 23 20 1 32 -3 32 -10z"/>
<path d="M14085 24023 c-169 -25 -310 -107 -486 -282 -120 -120 -167 -190
-176 -258 -13 -115 42 -285 142 -439 67 -104 214 -254 296 -302 110 -65 115
-65 924 -69 1194 -7 1296 9 1492 236 215 251 264 519 135 740 -39 67 -133 162
-217 220 -109 75 -188 110 -281 121 -114 14 -1758 44 -1829 33z"/>
<path d="M27335 23990 c-311 -15 -391 -26 -473 -66 -137 -66 -317 -266 -372
-411 -55 -145 11 -388 155 -572 64 -82 100 -119 196 -204 l86 -76 784 9 c1086
13 1248 19 1393 56 129 33 202 93 310 257 80 121 117 219 124 327 10 173 -40
293 -182 436 -146 146 -280 214 -466 235 -118 13 -1324 20 -1555 9z"/>
<path d="M24340 21340 c-77 -10 -139 -31 -183 -62 -117 -80 -232 -212 -284
-323 -23 -50 -28 -72 -27 -135 3 -232 236 -623 444 -747 120 -72 254 -78 1392
-64 l927 12 112 65 c149 86 184 112 253 179 76 75 139 174 173 271 36 106 39
245 6 349 -44 138 -144 267 -273 354 -83 55 -151 78 -267 91 -122 13 -2180 23
-2273 10z"/>
<path d="M16248 21320 c-60 -4 -130 -13 -158 -19 -181 -39 -444 -286 -509
-478 -60 -178 19 -428 194 -612 98 -102 181 -155 268 -170 121 -21 370 -31
942 -41 734 -12 1193 -12 1412 0 369 20 464 57 585 225 131 182 156 262 139
440 -14 138 -32 211 -76 300 -45 92 -108 162 -201 224 -131 88 -225 106 -632
121 -358 13 -1831 21 -1964 10z"/>
</g>
</svg>
